<svg width="22" height="22" viewBox="0 0 22 22" fill="none" xmlns="http://www.w3.org/2000/svg">
<path d="M3.79029 3C4.15529 3.05424 4.4043 3.19951 4.54387 3.48444C4.69328 3.78932 4.6343 4.07425 4.40102 4.32738C4.04127 4.71892 3.64941 5.08864 3.32766 5.507C2.06952 7.14527 1.46739 9.15708 1.62969 11.1802C1.79199 13.2034 2.70805 15.1049 4.21295 16.5425C4.45148 16.7707 4.66379 17.0014 4.59302 17.353C4.53339 17.6498 4.35843 17.8618 4.04979 17.9591C3.74115 18.0563 3.46986 17.9759 3.24117 17.7645C1.92404 16.55 0.961426 15.1166 0.462098 13.4382C-0.566045 9.98293 0.125282 6.8456 2.49807 4.05056C2.73059 3.77749 2.98494 3.52194 3.25886 3.28618C3.40368 3.16148 3.61009 3.09414 3.79029 3Z" fill="#015C61"/>
<path d="M22 10.3947C21.9345 13.3406 20.886 15.7522 18.7721 17.733C18.4097 18.0722 17.9405 18.0871 17.6174 17.7767C17.2944 17.4662 17.3121 17.0135 17.6725 16.6762C19.0663 15.3707 19.966 13.8132 20.2772 11.9733C20.753 9.15585 19.9372 6.70123 17.9051 4.60884C17.8049 4.50597 17.6928 4.41369 17.6017 4.30396C17.4749 4.15842 17.4127 3.97155 17.4283 3.78306C17.444 3.59457 17.5363 3.41932 17.6856 3.29455C17.8301 3.16462 18.022 3.09332 18.2208 3.09576C18.4196 3.09821 18.6095 3.1742 18.7504 3.30765C20.5073 4.93554 21.5629 6.90323 21.8886 9.22319C21.9495 9.65401 21.9712 10.0898 22 10.3947Z" fill="#015C61"/>
<path d="M17.2755 10.5183C17.2335 12.4467 16.5212 14.1082 15.0809 15.4768C14.7107 15.829 14.2356 15.8509 13.906 15.5341C13.5764 15.2174 13.6111 14.7685 13.9748 14.4156C16.2814 12.1817 16.2814 8.8804 13.9748 6.63588C13.6111 6.28175 13.5816 5.82536 13.9093 5.51861C14.2369 5.21186 14.7133 5.22683 15.0835 5.57784C16.5166 6.94014 17.2276 8.59422 17.2755 10.5183Z" fill="#015C61"/>
<path d="M4.71411 10.3987C4.75146 8.61991 5.45262 6.96957 6.87197 5.6079C7.23238 5.26125 7.71729 5.24566 8.04428 5.56301C8.35423 5.86477 8.3267 6.3224 7.97416 6.66469C6.86476 7.7433 6.28811 9.03764 6.29335 10.5458C6.29794 12.0191 6.86148 13.2891 7.9355 14.349C7.98071 14.3939 8.02789 14.4363 8.0718 14.4825C8.37651 14.8017 8.37585 15.2406 8.0718 15.5318C7.76775 15.8229 7.30249 15.8323 6.97092 15.5318C6.44175 15.0554 5.99325 14.5039 5.64134 13.897C5.02799 12.8533 4.72787 11.7292 4.71411 10.3987Z" fill="#015C61"/>
<path d="M12.5637 10.5221C12.5637 10.9189 12.398 11.2995 12.1031 11.5801C11.8081 11.8608 11.4081 12.0184 10.991 12.0184C10.5749 12.0161 10.1768 11.857 9.88372 11.576C9.59067 11.2949 9.42662 10.9148 9.42749 10.519C9.4304 10.1263 9.5954 9.75047 9.88692 9.47253C10.1784 9.19458 10.5731 9.0368 10.9858 9.03321C11.4024 9.03189 11.8026 9.18792 12.0984 9.46707C12.3943 9.74621 12.5616 10.1256 12.5637 10.5221Z" fill="#015C61"/>
</svg>
