<svg width="22" height="22" viewBox="0 0 22 22" fill="none" xmlns="http://www.w3.org/2000/svg">
<path d="M11 22C11.7578 22 12.4845 21.7103 13.0203 21.1946C13.5561 20.6789 13.8571 19.9795 13.8571 19.2501H8.14286C8.14286 19.9795 8.44388 20.6789 8.97969 21.1946C9.51551 21.7103 10.2422 22 11 22ZM11 2.63831L9.86143 2.85967C8.56994 3.11293 7.40904 3.78789 6.57522 4.7703C5.74139 5.75271 5.28586 6.98223 5.28571 8.25075C5.28571 9.1142 5.09429 11.2715 4.63 13.3957C4.40143 14.4503 4.09286 15.5489 3.68286 16.5003H18.3171C17.9071 15.5489 17.6 14.4517 17.37 13.3957C16.9057 11.2715 16.7143 9.1142 16.7143 8.25075C16.7138 6.98246 16.2581 5.75327 15.4243 4.77114C14.5905 3.78901 13.4298 3.11426 12.1386 2.86105L11 2.63831ZM19.8857 16.5003C20.2043 17.1149 20.5729 17.6016 21 17.8752H1C1.42714 17.6016 1.79571 17.1149 2.11429 16.5003C3.4 14.0254 3.85714 9.46069 3.85714 8.25075C3.85714 4.92343 6.31429 2.14609 9.57857 1.51225C9.55863 1.32107 9.58055 1.12799 9.64291 0.945464C9.70526 0.762939 9.80667 0.595019 9.9406 0.452533C10.0745 0.310047 10.238 0.19616 10.4205 0.118215C10.6029 0.0402708 10.8004 0 11 0C11.1996 0 11.3971 0.0402708 11.5795 0.118215C11.762 0.19616 11.9255 0.310047 12.0594 0.452533C12.1933 0.595019 12.2947 0.762939 12.3571 0.945464C12.4195 1.12799 12.4414 1.32107 12.4214 1.51225C14.0361 1.82834 15.4877 2.6718 16.5303 3.8998C17.573 5.1278 18.1426 6.66488 18.1429 8.25075C18.1429 9.46069 18.6 14.0254 19.8857 16.5003Z" fill="#015C61"/>
</svg>
