<svg width="22" height="14" viewBox="0 0 22 14" fill="none" xmlns="http://www.w3.org/2000/svg">
<path d="M22 11.3227C21.8553 11.6925 21.5717 11.82 21.1755 11.8172C19.7223 11.8078 18.2685 11.8133 16.8154 11.8133H16.5237V12.0879C16.5237 12.4983 16.5277 12.9088 16.5237 13.3197C16.5174 13.7597 16.263 14.0003 15.81 14.0008C12.6024 14.0008 9.39456 14.0008 6.18655 14.0008C5.73756 14.0008 5.48723 13.7552 5.48378 13.3125C5.48033 12.9015 5.47344 12.4911 5.48378 12.0807C5.4901 11.8941 5.44129 11.8323 5.23746 11.834C3.73375 11.8423 2.23003 11.8395 0.726311 11.8379C0.33818 11.8379 0.0987545 11.6708 0.0137792 11.3595C0.00646763 11.3399 0.00183536 11.3195 0 11.2988C0.0252629 10.7235 -0.0229671 10.1343 0.0924385 9.57631C0.331862 8.41908 1.42563 7.58263 2.6417 7.56035C3.60801 7.54309 4.57489 7.54754 5.5412 7.56035C6.31114 7.57038 6.94846 7.88836 7.44395 8.38734C7.89984 8.25535 8.32356 8.1139 8.75763 8.01366C9.00331 7.96646 9.25369 7.94628 9.50403 7.95352C10.499 7.94739 11.4946 7.95352 12.4897 7.95073C13.1442 7.95073 13.7706 8.06657 14.3551 8.35894C14.4613 8.41463 14.5273 8.4046 14.6129 8.31996C15.1802 7.77531 15.8645 7.5119 16.6649 7.5197C17.4957 7.52805 18.3265 7.5197 19.1568 7.5197C20.6151 7.5197 21.6957 8.39514 21.965 9.7857C21.9734 9.81154 21.9847 9.83638 21.9988 9.85976L22 11.3227ZM15.2249 12.7389C15.2249 12.3708 15.2387 12.0227 15.2249 11.6764C15.1595 10.2602 14.0267 9.21043 12.566 9.20709C11.521 9.20709 10.4755 9.19985 9.43054 9.21099C9.17325 9.21344 8.91736 9.24806 8.66921 9.31401C7.98022 9.4989 7.47037 9.91156 7.1075 10.5063C6.67918 11.2086 6.77793 11.9748 6.78195 12.7389H15.2249ZM15.562 9.17144C15.7974 9.58076 16.0333 9.96669 16.2406 10.3665C16.3112 10.5035 16.3715 10.562 16.5352 10.5609C17.8517 10.5537 19.1683 10.557 20.4848 10.557H20.7053C20.7053 10.3899 20.7116 10.2518 20.7053 10.1115C20.6875 9.75692 20.5321 9.42201 20.2702 9.17406C20.0083 8.92612 19.6593 8.78352 19.2934 8.77494C18.3702 8.76436 17.4469 8.7677 16.5243 8.77494C16.1628 8.7798 15.8179 8.9222 15.5637 9.17144H15.562ZM6.41334 9.17144C6.18081 8.94799 5.86793 8.82081 5.54062 8.8167C4.57431 8.80835 3.60743 8.79721 2.6417 8.8167C1.75635 8.83675 1.09722 9.73001 1.32114 10.5804H2.34773C3.39327 10.5804 4.43824 10.5804 5.48378 10.5765C5.55612 10.5765 5.66578 10.5453 5.69507 10.4946C5.93851 10.0675 6.1676 9.63144 6.41506 9.172L6.41334 9.17144Z" fill="#015C61"/>
<path d="M14.5832 3.43249C14.584 4.35434 14.2083 5.23897 13.5384 5.8929C12.8685 6.54683 11.9589 6.91684 11.0085 6.92199C9.03225 6.92979 7.41542 5.35601 7.41944 3.42804C7.43203 2.51424 7.8153 1.64205 8.48622 1.00041C9.15713 0.358765 10.0617 -0.000658299 11.0039 9.05167e-07C11.9461 0.00066011 12.8501 0.36135 13.52 1.00393C14.19 1.64651 14.572 2.51924 14.5832 3.43305V3.43249ZM13.2896 3.43249C13.2872 2.99393 13.151 2.56587 12.8981 2.20232C12.6452 1.83876 12.287 1.556 11.8686 1.38969C11.4502 1.22338 10.9904 1.18098 10.5472 1.26783C10.1039 1.35468 9.69718 1.5669 9.37817 1.87771C9.05916 2.18853 8.8422 2.58401 8.75465 3.01428C8.6671 3.44455 8.71289 3.89034 8.88623 4.2954C9.05958 4.70046 9.35272 5.04666 9.72868 5.29032C10.1046 5.53398 10.5466 5.66419 10.9987 5.66452C11.3009 5.66549 11.6003 5.60832 11.8796 5.49633C12.1589 5.38433 12.4125 5.21973 12.6257 5.01206C12.839 4.80438 13.0077 4.55775 13.122 4.28643C13.2364 4.01511 13.2941 3.72449 13.2919 3.43138L13.2896 3.43249Z" fill="#015C61"/>
<path d="M17.9061 1.49805C18.6272 1.49922 19.3185 1.77759 19.8284 2.27216C20.3383 2.76674 20.6253 3.43718 20.6265 4.13661C20.6265 5.6018 19.3989 6.80023 17.8992 6.79466C17.1819 6.78373 16.4979 6.49946 15.9949 6.00328C15.492 5.5071 15.2105 4.83888 15.2114 4.14306C15.2123 3.44724 15.4955 2.77971 15.9998 2.28477C16.504 1.78982 17.1888 1.50722 17.9061 1.49805ZM17.8952 2.75384C17.6111 2.75484 17.3337 2.83758 17.0982 2.99159C16.8626 3.14559 16.6794 3.36393 16.5719 3.61897C16.4643 3.874 16.4372 4.15426 16.494 4.42425C16.5507 4.69424 16.6888 4.94182 16.8907 5.13564C17.0927 5.32946 17.3493 5.46081 17.6283 5.51305C17.9072 5.56529 18.1959 5.53608 18.4577 5.4291C18.7195 5.32213 18.9427 5.14221 19.099 4.91213C19.2553 4.68205 19.3377 4.41215 19.3358 4.13661C19.3332 3.76814 19.1801 3.41569 18.9101 3.15649C18.6401 2.8973 18.2751 2.75251 17.8952 2.75384Z" fill="#015C61"/>
<path d="M6.79687 4.1355C6.79755 4.6581 6.63835 5.16916 6.33942 5.60396C6.04049 6.03875 5.61526 6.37775 5.11759 6.57802C4.61991 6.7783 4.07217 6.83084 3.54369 6.72901C3.01521 6.62717 2.52977 6.37554 2.14881 6.00596C1.76786 5.63638 1.50852 5.16548 1.40364 4.65287C1.29876 4.14026 1.35305 3.60899 1.55964 3.12632C1.76623 2.64365 2.11582 2.23129 2.56416 1.94144C3.0125 1.65159 3.53943 1.49728 4.07824 1.49805C4.79816 1.50185 5.48746 1.78096 5.99647 2.27478C6.50549 2.76859 6.7931 3.43723 6.79687 4.1355ZM4.07536 2.75329C3.79123 2.75218 3.51315 2.8329 3.27635 2.98521C3.03954 3.13752 2.85467 3.35457 2.74515 3.60887C2.63563 3.86317 2.60638 4.14327 2.66112 4.4137C2.71585 4.68414 2.85211 4.93273 3.05262 5.128C3.25313 5.32326 3.50888 5.45641 3.78747 5.51058C4.06607 5.56476 4.35497 5.53751 4.61759 5.4323C4.88021 5.32709 5.10473 5.14865 5.2627 4.91958C5.42068 4.69051 5.50502 4.42112 5.50502 4.14552C5.50654 3.9627 5.47065 3.7814 5.39943 3.61212C5.3282 3.44284 5.22306 3.28895 5.09009 3.15936C4.95713 3.02977 4.79897 2.92705 4.62479 2.85716C4.45061 2.78726 4.26386 2.75158 4.07536 2.75217V2.75329Z" fill="#015C61"/>
</svg>
