<svg width="38" height="38" viewBox="0 0 38 38" fill="none" xmlns="http://www.w3.org/2000/svg">
<rect x="0.5" y="0.5" width="37" height="37" rx="4.5" fill="white" stroke="#FD4D4F"/>
<path d="M16.9375 9.375H21.0625C21.2448 9.375 21.4197 9.44743 21.5486 9.57636C21.6776 9.7053 21.75 9.88016 21.75 10.0625V11.4375H16.25V10.0625C16.25 9.88016 16.3224 9.7053 16.4514 9.57636C16.5803 9.44743 16.7552 9.375 16.9375 9.375ZM23.125 11.4375V10.0625C23.125 9.51549 22.9077 8.99089 22.5209 8.60409C22.1341 8.2173 21.6095 8 21.0625 8H16.9375C16.3905 8 15.8659 8.2173 15.4791 8.60409C15.0923 8.99089 14.875 9.51549 14.875 10.0625V11.4375H11.4457C11.4412 11.4375 11.4366 11.4375 11.432 11.4375H10.0625C9.88016 11.4375 9.7053 11.5099 9.57636 11.6389C9.44743 11.7678 9.375 11.9427 9.375 12.125C9.375 12.3073 9.44743 12.4822 9.57636 12.6111C9.7053 12.7401 9.88016 12.8125 10.0625 12.8125H10.8023L11.9751 27.47C12.0304 28.1591 12.3433 28.8022 12.8514 29.271C13.3595 29.7399 14.0255 30.0001 14.7169 30H23.2831C23.9745 30.0001 24.6405 29.7399 25.1486 29.271C25.6567 28.8022 25.9696 28.1591 26.0249 27.47L27.1978 12.8125H27.9375C28.1198 12.8125 28.2947 12.7401 28.4236 12.6111C28.5526 12.4822 28.625 12.3073 28.625 12.125C28.625 11.9427 28.5526 11.7678 28.4236 11.6389C28.2947 11.5099 28.1198 11.4375 27.9375 11.4375H26.5694C26.5648 11.4375 26.5602 11.4375 26.5556 11.4375H23.125ZM25.8172 12.8125L24.654 27.36C24.6263 27.7046 24.4699 28.0261 24.2159 28.2605C23.9618 28.4949 23.6288 28.6251 23.2831 28.625H14.7169C14.3712 28.6251 14.0382 28.4949 13.7841 28.2605C13.5301 28.0261 13.3737 27.7046 13.346 27.36L12.1827 12.8125H25.8172ZM15.5226 14.1875C15.7046 14.177 15.8833 14.2391 16.0194 14.3603C16.1555 14.4815 16.238 14.6518 16.2486 14.8337L16.9361 26.5212C16.9433 26.7011 16.8798 26.8766 16.759 27.01C16.6383 27.1435 16.4701 27.2243 16.2904 27.2351C16.1108 27.2459 15.9341 27.1858 15.7982 27.0678C15.6624 26.9497 15.5782 26.7831 15.5639 26.6038L14.875 14.9163C14.8694 14.8259 14.8817 14.7354 14.9112 14.6498C14.9407 14.5643 14.9868 14.4854 15.0468 14.4177C15.1069 14.35 15.1797 14.2948 15.2611 14.2553C15.3425 14.2158 15.4309 14.1928 15.5212 14.1875H15.5226ZM22.4774 14.1875C22.5677 14.1928 22.6561 14.2158 22.7375 14.2553C22.819 14.2948 22.8918 14.35 22.9518 14.4177C23.0119 14.4854 23.0579 14.5643 23.0874 14.6498C23.1169 14.7354 23.1292 14.8259 23.1236 14.9163L22.4361 26.6038C22.4325 26.6951 22.4106 26.7848 22.3718 26.8676C22.3331 26.9504 22.2782 27.0247 22.2104 27.086C22.1426 27.1474 22.0632 27.1946 21.9769 27.2248C21.8906 27.2551 21.7992 27.2679 21.7079 27.2624C21.6166 27.2569 21.5274 27.2333 21.4454 27.1929C21.3633 27.1525 21.2902 27.0961 21.2302 27.0271C21.1703 26.9581 21.1247 26.8778 21.0961 26.7909C21.0675 26.7041 21.0566 26.6124 21.0639 26.5212L21.7514 14.8337C21.762 14.6518 21.8445 14.4815 21.9806 14.3603C22.1167 14.2391 22.2954 14.177 22.4774 14.1875ZM19 14.1875C19.1823 14.1875 19.3572 14.2599 19.4861 14.3889C19.6151 14.5178 19.6875 14.6927 19.6875 14.875V26.5625C19.6875 26.7448 19.6151 26.9197 19.4861 27.0486C19.3572 27.1776 19.1823 27.25 19 27.25C18.8177 27.25 18.6428 27.1776 18.5139 27.0486C18.3849 26.9197 18.3125 26.7448 18.3125 26.5625V14.875C18.3125 14.6927 18.3849 14.5178 18.5139 14.3889C18.6428 14.2599 18.8177 14.1875 19 14.1875Z" fill="#FD4D4F"/>
</svg>
